#!OML:ASF H:\IndianDance\Patient Classification 1\Patient 1\Session 1\dancer.ASF
:FULLY-SPECIFIED
:DEGREES
1871
root 0.468656 15.6821 4.33608 185.839 -92.329 -182.352
lowerback 5.23278 0.407431 -3.18025
upperback -3.07837 -0.235105 -6.14903
thorax -6.19062 -0.203078 -4.63859
lowerneck -11.1625 -3.40317 -6.04353
upperneck 5.74799 -5.85836 19.6598
head 4.39644 -2.20464 6.72978
rclavicle 3.26752e-015 -3.02153e-014
rhumerus -28.8076 -12.6311 -85.7446
rradius 21.2847
rwrist 13.1405
rhand -13.4339 10.2011
rfingers 7.12502
rthumb 12.6749 -19.3943
lclavicle 3.26752e-015 -3.02153e-014
lhumerus -26.9796 18.2586 59.6827
lradius 23.6747
lwrist -17.2227
lhand -28.4839 20.5728
lfingers 7.12502
lthumb -1.85323 -1029.46
rfemur -33.7632 0.667508 30.6761
rtibia 30.9044
rfoot -5.60861 -12.5424
rtoes 10.0427
lfemur -8.67022 8.13698 -27.9826
ltibia 19.3716
lfoot -14.5236 4.58545
ltoes 19.43
1872
root 0.460297 15.6713 4.3492 181.657 -92.3203 -178.153
lowerback 5.1237 0.329089 -3.27429
upperback -3.07723 -0.351224 -6.24466
thorax -6.13482 -0.261555 -4.67342
lowerneck -10.9633 -3.71577 -6.26132
upperneck 5.76137 -6.27249 19.7286
head 4.43138 -2.42031 6.75593
rclavicle -9.7653e-015 6.20208e-014
rhumerus -28.9497 -11.9817 -86.2195
rradius 21.4175
rwrist 12.8301
rhand -13.2208 10.1325
rfingers 7.12502
rthumb 12.8804 -19.45
lclavicle -9.7653e-015 6.20208e-014
lhumerus -27.3404 18.418 60.0294
lradius 23.5822
lwrist -17.4861
lhand -28.2688 20.5233
lfingers 7.12502
lthumb -1.64554 -1029.5
rfemur -33.6725 0.346164 30.9091
rtibia 31.1343
rfoot -5.97812 -12.5541
rtoes 9.88316
lfemur -8.67525 8.16025 -28.1982
ltibia 19.4782
lfoot -14.9394 4.53978
ltoes 19.0079
1873
root 0.451453 15.66 4.36274 177.512 -92.3116 -173.978
lowerback 5.0011 0.252006 -3.36875
upperback -3.08489 -0.4644 -6.33213
thorax -6.08033 -0.318412 -4.7
lowerneck -10.7684 -4.02011 -6.46681
upperneck 5.78654 -6.67587 19.7658
head 4.46842 -2.63071 6.77018
rclavicle -5.93869e-015 9.85972e-014
rhumerus -29.1127 -11.3208 -86.6908
rradius 21.5683
rwrist 12.4985
rhand -12.9912 10.0578
rfingers 7.12502
rthumb 13.1016 -19.5107
lclavicle -5.93869e-015 9.85972e-014
lhumerus -27.7283 18.6048 60.3932
lradius 23.4745
lwrist -17.7762
lhand -28.0485 20.4504
lfingers 7.12502
lthumb -1.43276 -1029.57
rfemur -33.5814 0.016446 31.1425
rtibia 31.3718
rfoot -6.4195 -12.5491
rtoes 9.58524
lfemur -8.7063 8.20298 -28.4151
ltibia 19.6093
lfoot -15.3525 4.46727
ltoes 18.5613
1874
root 0.442048 15.6485 4.37646 173.447 -92.3174 -169.875
lowerback 4.86854 0.172147 -3.46556
upperback -3.09632 -0.579885 -6.41054
thorax -6.02405 -0.376067 -4.71572
lowerneck -10.5853 -4.31566 -6.66413
upperneck 5.82121 -7.06722 19.7777
head 4.50812 -2.83476 6.77538
rclavicle 6.5102e-015 -2.70347e-014
rhumerus -29.2883 -10.6588 -87.1547
rradius 21.7281
rwrist 12.1519
rhand -12.7423 9.97744
rfingers 7.12502
rthumb 13.3416 -19.5754
lclavicle 6.5102e-015 -2.70347e-014
lhumerus -28.1381 18.822 60.774
lradius 23.3499
lwrist -18.0859
lhand -27.8309 20.3562
lfingers 7.12502
lthumb -1.22263 -1029.67
rfemur -33.482 -0.32119 31.3752
rtibia 31.615
rfoot -6.90722 -12.5654
rtoes 9.10977
lfemur -8.75066 8.25704 -28.6285
ltibia 19.7577
lfoot -15.7641 4.35452
ltoes 18.1634
1875
root 0.432205 15.6368 4.39033 169.381 -92.3383 -165.766
lowerback 4.72971 0.0894813 -3.57095
upperback -3.10812 -0.698323 -6.48137
thorax -5.96446 -0.43464 -4.71855
lowerneck -10.4167 -4.60285 -6.86031
upperneck 5.85966 -7.44602 19.7733
head 4.54968 -3.03214 6.77563
rclavicle 6.48535e-015 -7.95139e-015
rhumerus -29.4761 -10.0064 -87.6086
rradius 21.8995
rwrist 11.8021
rhand -12.4716 9.89581
rfingers 7.12502
rthumb 13.6025 -19.6398
lclavicle 6.48535e-015 -7.95139e-015
lhumerus -28.5678 19.0748 61.1696
lradius 23.2115
lwrist -18.4112
lhand -27.6273 20.2285
lfingers 7.12502
lthumb -1.02593 -1029.79
rfemur -33.3712 -0.655928 31.5952
rtibia 31.8633
rfoot -7.42779 -12.6208
rtoes 8.52424
lfemur -8.80326 8.33111 -28.8458
ltibia 19.9146
lfoot -16.159 4.22204
ltoes 17.7188
1876
root 0.42188 15.625 4.40427 165.332 -92.3718 -161.671
lowerback 4.58519 0.00528291 -3.68762
upperback -3.11962 -0.81812 -6.54447
thorax -5.90096 -0.493235 -4.70703
lowerneck -10.2611 -4.88082 -7.05247
upperneck 5.90379 -7.81158 19.7516
head 4.59302 -3.22249 6.77018
rclavicle -1.30701e-014 -2.22639e-014
rhumerus -29.6754 -9.36951 -88.0494
rradius 22.0769
rwrist 11.4577
rhand -12.2084 9.81875
rfingers 7.12502
rthumb 13.8562 -19.6997
lclavicle -1.30701e-014 -2.22639e-014
lhumerus -29.0161 19.3717 61.5744
lradius 23.0542
lwrist -18.7621
lhand -27.4348 20.0533
lfingers 7.12502
lthumb -0.839986 -1029.97
rfemur -33.2453 -0.977654 31.7979
rtibia 32.1153
rfoot -7.96953 -12.7292
rtoes 7.87626
lfemur -8.859 8.40609 -29.0663
ltibia 20.0759
lfoot -16.5443 4.06279
ltoes 17.3558
